<?xml version="1.0" encoding="utf-8"?>
<!-- Generator: Adobe Illustrator 24.0.1, SVG Export Plug-In . SVG Version: 6.00 Build 0)  -->
<svg version="1.1" id="Layer_1" xmlns="http://www.w3.org/2000/svg" xmlns:xlink="http://www.w3.org/1999/xlink" x="0px" y="0px"
	 viewBox="0 0 300 300" style="enable-background:new 0 0 300 300;" xml:space="preserve">
<style type="text/css">
	.st0{fill-rule:evenodd;clip-rule:evenodd;}
	.st1{fill-rule:evenodd;clip-rule:evenodd;fill:#212121;}
	.st2{fill-rule:evenodd;clip-rule:evenodd;fill:#FFFFFF;}
	.st3{fill-rule:evenodd;clip-rule:evenodd;fill:#FFFFFF;fill-opacity:0.38;}
	.st4{fill:#212121;}
	.st5{fill-rule:evenodd;clip-rule:evenodd;fill:#F50A81;}
	.st6{fill:#F50A81;}
</style>
<g>
	<path class="st0" d="M127.1,10.1c1-0.1,2.1,0.1,3,0.6c0.6,0.5,0.6,1.2,0.8,2.4c1,9.6,3,79.9,2.7,80.7c-0.4,0.7-0.8,0.7-1.6,0.8
		c-17.9,2.8-40.7,9.2-58.2,15.1c-46.2,15.8-59.2,28.3-60.9,29c-0.6,0.2-1.3-0.2-1.5-0.8c0,0,0-0.1,0-0.2c-1.6-5.4-5.9-82.3-6.2-89
		c-0.1-0.5,0.1-1,0.5-1.4C12.8,39.5,108.7,10.1,127.1,10.1z M13.1,135.8c27-19.9,84.7-38.5,118-43.7c-2.3-88.9-2.6-75.1-2.7-79.4
		c-1.7-0.1-3.3-0.1-5,0.2C106,14.9,64.9,26.8,47.1,32.3c-4.2,1.3-38.8,12.2-41,16.1C5.9,48.7,11.3,124.4,13.1,135.8z M5.3,49L5.3,49
		L5.3,49z"/>
	<g>
		<path class="st1" d="M19.3,55.4c0.1,1.4,4.2,56.2,4.5,56c6.2-3.7,32.2-13,35.7-15c0.6-0.3-2.7-50.2-3.3-52.4
			C55.3,41.1,19.3,55.2,19.3,55.4z"/>
		<path class="st1" d="M55.2,42.5c0.7-0.1,1.5,0.2,1.9,0.8c1.1,2,3.5,43,3.7,48.2c0.2,5.2,0.3,5.5-1,6.1c-2.3,1.2-9.2,3.8-15.3,6.2
			c-20.3,8-19.3,8.3-20.3,8.7c-0.6,0.2-1.4-0.1-1.6-0.7c0-0.1,0-0.1-0.1-0.2c-0.7-2.9-3.9-56.2-3.8-56.2c0-0.2,0.1-0.4,0.3-0.5
			C20.4,54.2,49,42.4,55.2,42.5z M19.8,55.7c0,0.5,4.8,52.1,4.9,53.7c8-4,28.6-11.6,33.5-13.9c0.1-5.6-2.6-46.7-3.1-50.8
			C50.8,44.3,24.3,53.9,19.8,55.7z M55.5,44.7L55.5,44.7L55.5,44.7z M55.5,44.7L55.5,44.7L55.5,44.7z M55.5,44.7L55.5,44.7
			L55.5,44.7z M55.5,44.7L55.5,44.7L55.5,44.7z"/>
		<path class="st1" d="M68.4,40.5c-0.1-0.5,0.5-0.9,1-1.2c5.8-3.4,41.6-12.6,46.4-12.5c0.8,0,1.4,0.5,1.6,1.2
			c0.7,2.4,2.2,18.1,1.8,20.2c-0.1,0.5-0.4,0.9-0.8,1.1c-0.4,0.1-0.8,0.2-1.2,0.2c-6.6,1.2-42.2,10.6-46.8,9.8c-0.5,0-1-0.4-1.1-0.9
			c-0.3-1.8-0.6-9.5-0.8-15.9C68.4,40.7,68.4,40.5,68.4,40.5z M115.1,29.4c-5,0.5-42.9,8.7-45.6,11.1c0.2,2,1.1,14.2,1.5,17
			c4.8-0.1,38-9.1,45.7-10.6C116.7,43.7,115.3,29.3,115.1,29.4z"/>
		<path class="st1" d="M120.7,58.8l0.2,0.3v0l-0.1,0.4c-0.7,0.4,0.4,0-4,0.7c-9.9,1.6-27.2,6.2-36.4,9.2c-8.3,2.7-5.5,2.4-7.6,2.5
			L72,71.2v0l-0.1-1c0.8-0.9,0.6-0.7,0.9-0.9c8.5-3.7,36.7-10.3,47.5-10.7L120.7,58.8z"/>
		<path class="st1" d="M121.5,72l0.2,0.3v0l-0.1,0.4c-0.7,0.4,0.4,0-4,0.7c-9.9,1.6-27.2,6.2-36.4,9.2c-8.6,2.8-5.4,2.4-7.6,2.5
			l-0.7-0.7v0l-0.1-1c0.8-0.9,0.6-0.7,0.9-0.9c8.5-3.7,36.7-10.3,47.5-10.7L121.5,72z"/>
	</g>
	<path class="st0" d="M294.6,40.8c0.3,0.5,0.2,0,0.3,6.5c0,4.9,0.5,78.9-0.8,83.6c-0.1,0.6-0.7,1.1-1.4,1c-0.1,0-0.2-0.1-0.3-0.1
		c-3.5-2.3-7-4.3-10.7-6.2c-29.3-15-80.5-27.7-111.3-30.5c-0.3,0-0.5-0.1-0.8-0.3c-0.2-0.2-0.4-0.4-0.4-0.7c-0.1-0.9-2.8-75-2-81.5
		c0-0.8,0.6-1.5,1.4-1.7C179.1,7,289.8,33.2,294.6,40.8L294.6,40.8z M293.8,41.4C293.8,41.4,293.8,41.5,293.8,41.4L293.8,41.4
		C293.8,41.4,293.8,41.4,293.8,41.4L293.8,41.4c-3.1-4.8-53.3-16.4-58.8-17.6c-8.5-1.9-56.9-12.6-65.4-10.7
		c0.1,4.3-0.9-7.7,2.1,79.5c27.5,2.6,72,13.3,101.6,26.5c14.8,6.6,18.7,10.3,18.8,9.8C293.3,115.3,293.7,41.4,293.8,41.4L293.8,41.4
		z M294.6,41.8L294.6,41.8L294.6,41.8C294.5,41.7,294,40.9,294.6,41.8z"/>
	<path class="st1" d="M281,49c0,1.4-0.8,56.3-1.1,56.2c-6.4-3.3-32.9-11.1-36.6-12.8c-0.6-0.3-0.4-50.2,0.1-52.5
		C244.1,37,281,48.9,281,49z"/>
	<path class="st1" d="M244.9,38.3c6.6,0.1,33.9,9.1,36.3,10.2c0.2,0.1,0.4,0.3,0.4,0.5c-0.1,0-0.4,0,0,0c0.1,2.9,0.1,53.5-0.4,56.4
		c-0.1,0.4-0.3,0.7-0.6,0.8c-0.2,0.1-0.4,0.2-0.6,0.2c-0.7,0-0.2-0.1-4.6-1.8c-9.1-3.5-25.4-8.3-31.3-10.5c-0.6-0.2-1.3-0.5-1.8-0.9
		c-0.4-0.6-0.6-0.5-0.7-12.2c0-6.4,0-37.1,0.6-41.2C242.6,38.6,243.7,38.3,244.9,38.3L244.9,38.3z M244.5,40.6
		c-0.3,4.3-0.4,44.4,0,50.8c0,0.6,25.2,8,34.3,11.9c0.1-2.4,1.6-53.1,1.6-53.9C275.6,47.8,249,40,244.5,40.6L244.5,40.6z
		 M244.2,40.6L244.2,40.6L244.2,40.6z M244.2,40.6L244.2,40.6L244.2,40.6z M244.2,40.6L244.2,40.6L244.2,40.6L244.2,40.6z
		 M244.2,40.6L244.2,40.6L244.2,40.6z"/>
	<path class="st1" d="M183.5,26.4c7,0.1,43.3,7.2,47.1,10c0.3,0.2,0.5,0.5,0.5,0.8c0,1.2,0.4,12.9,0.3,16.7c0,1.1,0,1.8-0.8,2.1
		c-3.6,1.4-38-5.5-46.9-6.8c-2.3-0.3-2.9,0.2-3-3.3c-0.1-4.3,0.2-13.4,0.6-17C181.4,27.1,181.6,26.4,183.5,26.4L183.5,26.4z
		 M183.3,46.6c7.5,0.9,41.4,7.9,46.2,7.8c0.2-2.6,0.4-14.7,0.5-16.9c0.1-2-41.6-8.3-46.2-8.5C183.3,34.8,183.2,40.7,183.3,46.6z"/>
	<path class="st1" d="M182.4,59.4c7,0.1,43.3,7.2,47.1,10c0.3,0.2,0.5,0.5,0.5,0.8c0,1.2,0.4,12.9,0.3,16.7c0,1.1,0,1.8-0.8,2.1
		c-3.6,1.4-38-5.5-46.9-6.8c-2.3-0.3-2.9,0.2-3-3.3c-0.1-4.3,0.2-13.4,0.6-17C180.3,60.1,180.5,59.4,182.4,59.4L182.4,59.4z
		 M182.2,79.6c7.5,0.9,41.4,7.9,46.2,7.8c0.2-2.6,0.4-14.7,0.5-16.9c0.1-2-41.6-8.3-46.2-8.5C182.2,67.8,182.1,73.7,182.2,79.6z"/>
	<path class="st2" d="M118.8,134.7c10.1,0,10.5,12.8,10.5,12.8s-7.5,30.5-10.1,30.2c-5.9-0.6-13.3-2.1-19.9-16.9
		c-5-11.3-5.8-46.4-6.5-48c-0.8-2-3-3.6-4.1-5.6c-1.8-3.2-1.9-8.1,0.8-10.4c1-0.6,2.2-1,3.4-1.2c-1-2.2-1.9-4.6-2.6-6.9
		c-0.5-1.3-1-2.5-0.5-3.7c0.5-1,1.6-1.4,2.6-0.9c0.2,0.1,0.3,0.2,0.5,0.3c1.2,1.1,4.4,7.2,4.7,8.6c0.1,0.4,4.3,4.4,5.1,7.2
		c0.2,0.7,3.4,5.7,4,6.6c3.7,5.8,5.7,12.8,8.4,19.2C116,128,117.7,133.4,118.8,134.7c1.7,2,3.2,4.1,4.6,6.2"/>
	<path class="st1" d="M93.4,83.3c1.3,0.9,3.7,5.6,4.3,7.1c1.3,2.8,0.5,1.7,1.4,2.7c4.7,5.3,3.9,5.8,4.8,7.4
		c2.7,4.9,4.5,6.5,7.4,13.6c0.8,2.1,4.9,12.9,4.9,13c0.6,1.9,2,5.9,2.8,7.1c5.2,0.1,8.1,3.4,9.8,8.2c0.5,1.6,0.8,3.3,1,4.9
		c0,0.8-4.3,17.7-6.9,25.2c-0.5,1.6-1.2,3.1-2,4.6c-1,1.6-1.5,1.5-2.6,1.4c-1.8-0.2-3.6-0.5-5.3-1.1c-3.1-1.1-5.8-2.9-8-5.4
		c-3.6-4.2-6.4-9.1-8-14.4c-3.1-10.9-4.2-29.8-4.9-40.8c-0.3-4-0.3-3.8-0.8-4.6c-0.8-1.2-2.2-2.6-3.2-4c-2.3-3.5-2.7-9.1,0.3-12
		c0.8-0.7,1.8-1.3,2.9-1.5c-0.6-1.5-1.2-3-1.6-4.6c-0.5-1.7-0.7-1.9-0.9-2.7C87.7,83.7,91,81.7,93.4,83.3z M119,176.9L119,176.9
		L119,176.9z M119,176.8L119,176.8L119,176.8L119,176.8z M119,176.9L119,176.9L119,176.9z M91.6,84.8c-0.4,0-0.7,0.2-0.9,0.7
		c-0.1,0.9,0.1,1.7,0.5,2.5c0.7,2.4,1.6,4.7,2.6,7c0.2,0.4,0.1,1-0.2,1.3c-0.4,0.3-0.4,0.2-1.4,0.4c-0.7,0.1-1.4,0.4-2,0.8
		c-1.9,1.5-2.5,5.8-0.5,9.1c0.5,0.7,1,1.4,1.6,2.1c2.9,3.3,2.7,3.5,3,7.2c0.7,8.9,1.3,21.7,3.1,32.6c1.2,7.4,2.2,11.5,6,17.7
		c2.3,3.7,4.7,6.5,8.5,8.5c2.3,1.1,4.8,1.8,7.3,2c0.9-1.5,1.7-3.1,2.2-4.8c2.7-7.5,5-15.7,7-23.4c0.4-1.5,0.3-1,0.3-2
		c-0.6-4.8-2.4-9.5-6.9-11.1c-0.6-0.2-1.2-0.3-1.8-0.4c1.4,1.8,2.7,3.6,3.9,5.5l-0.1,0.6l-0.6-0.1c-6.6-9.7-3.7-2.7-8.2-14.4
		c-0.3-0.9-0.8-2-1.4-3.4c-1.3-3.3-2.4-6.2-3.8-9.4c-2.9-6.3-3.2-5.9-6.6-11.4c-0.5-0.7-0.9-1.5-1.2-2.3c-0.7-2.3-3.8-5.3-4.8-6.5
		c-0.5-0.7,0-0.4-1.7-3.6c-0.7-1.5-1.6-2.9-2.5-4.3C92.6,85.3,92.3,84.8,91.6,84.8L91.6,84.8z M103.6,99.9L103.6,99.9L103.6,99.9z
		 M103.6,99.9L103.6,99.9L103.6,99.9z M98.6,92.5L98.6,92.5L98.6,92.5z"/>
	<path class="st2" d="M88.2,98.3c-0.9-0.4-2-0.2-2.7,0.5c-1,0.9-0.7,2.5-0.3,3.6c0.9,2,2.1,3.8,3.7,5.3c0.8,0.6,2.8,0.3,3-0.9
		c0.3-1.3-0.3-2.4-0.8-3.6C90.3,101.6,89.4,99.3,88.2,98.3z"/>
	<path class="st1" d="M87,97.5c0.5,0,1,0.1,1.5,0.4c0.8,0.6,1.4,1.4,1.9,2.2c0.5,0.9,1.7,3,2,3.5c0.4,0.8,0.6,1.7,0.6,2.6
		c0,1-0.6,1.9-1.5,2.3c-0.9,0.4-2,0.5-2.9,0.1c-1.2-0.9-2.1-1.9-2.9-3.2c-1.1-1.6-2-3.4-1.8-5.3C84.1,98.7,85.4,97.5,87,97.5z
		 M86.4,98.9c-0.4,0.2-0.7,0.6-0.7,1.1c0,0.7,0.1,1.5,0.4,2.1c0.9,1.8,2,3.3,3.4,4.7c0.5,0.2,1,0.1,1.4-0.2c0.2-0.7,0.1-1.4-0.2-2
		c0-0.1-1.4-3.5-1.4-3.6c-0.3-0.8-0.7-1.6-1.3-2.3l0,0l0,0l0,0l0,0l0,0l0,0l0,0C87.4,98.5,86.8,98.6,86.4,98.9z"/>
	<path class="st2" d="M92.4,95.7c-0.9-0.4-2-0.2-2.7,0.5c-1,0.9-0.7,2.5-0.3,3.6c0.9,2,2.1,3.8,3.7,5.3c0.8,0.6,2.8,0.3,3-0.9
		c0.3-1.3-0.3-2.4-0.8-3.6C94.6,99.1,93.7,96.8,92.4,95.7z"/>
	<path class="st1" d="M91.3,95c0.5,0,1,0.1,1.5,0.4c0.8,0.6,1.4,1.4,1.9,2.2c0.5,0.9,1.7,3,2,3.5c0.4,0.8,0.6,1.7,0.6,2.6
		c0,1-0.6,1.9-1.5,2.3c-0.9,0.4-2,0.5-2.9,0.1c-1.2-0.9-2.1-1.9-2.9-3.2c-1.1-1.6-2-3.4-1.8-5.3C88.3,96.1,89.7,94.9,91.3,95z
		 M90.6,96.4c-0.4,0.2-0.7,0.6-0.7,1.1c0,0.7,0.1,1.5,0.4,2.1c0.9,1.8,2,3.3,3.4,4.7c0.5,0.2,1,0.1,1.4-0.2c0.2-0.7,0.1-1.4-0.2-2
		c0-0.1-1.4-3.5-1.4-3.6c-0.3-0.8-0.7-1.6-1.3-2.3l0,0l0,0l0,0l0,0l0,0l0,0l0,0C91.6,95.9,91.1,96.1,90.6,96.4L90.6,96.4z"/>
	<path class="st2" d="M102.3,100.4c0.3-1,0-2-0.7-2.7c-1-0.9-2.5-0.5-3.7,0c-1.9,1-3.6,2.4-5,4.1c-0.5,0.8,0,2.8,1.2,3
		c1.4,0.2,2.4-0.4,3.6-1.1C99.2,102.8,101.4,101.7,102.3,100.4z"/>
	<path class="st1" d="M99.9,96.3c1,0,2,0.4,2.5,1.3c0.7,0.9,0.8,2.1,0.2,3.1c-0.7,0.9-1.5,1.7-2.4,2.3c-1.2,0.9-2.5,1.7-3.8,2.4
		c-0.6,0.3-1.3,0.4-2,0.4c-1,0-1.9-0.6-2.3-1.5c-0.5-0.9-0.5-2-0.1-2.9c0.6-1.2,2.8-2.9,4-3.7C97.1,96.8,98.5,96.3,99.9,96.3z
		 M100.3,98c-1.2,0.1-2.3,0.6-3.2,1.4c-1.2,0.8-2.3,1.8-3.2,3c-0.1,0.2,0,1.2,0.4,1.3c0.7,0.1,1.5-0.1,2.1-0.4
		c2.9-1.4,4.6-2,5.6-3.1l0,0c0-0.3,0-0.5-0.1-0.8C101.8,98.6,101.1,98,100.3,98L100.3,98z"/>
	<path class="st2" d="M128.1,149.8c0,0,1.2-9.6-9-15.3c-2.4-1.3,23.2-15.1,52.2-16.1c39.2-1.4,49.6,35.6,49.4,45.1
		c-0.2,15.6-7.7,30.2-20.4,39.4l-4.8-3.2l-70.3,10c0,0-5.9-17.6-10.8-20.7c-1.3-0.8,5.3-10.9,5.3-10.9
		C124,154.4,128.1,149.8,128.1,149.8L128.1,149.8z"/>
	<path class="st1" d="M127.2,150.4c0.6-1,0.5-0.6,0.5-1c0.1-4.3-1.7-8.4-4.8-11.4c-2.6-2.5-4.2-2.7-4.5-3.3
		c-1.5-3.2,23.6-14.4,47-16.7c8.1-0.8,15.1-0.7,22.9,1.7c17.6,5.4,29.2,21.4,32.6,37.9c0.6,2.6,0.8,5.2,0.6,7.8
		c-0.4,8.6-3,16.9-7.5,24.2c-4.2,6.7-9.7,12.1-13.2,14.3c-0.4,0.3-0.9,0.3-1.2,0l-4.5-2.9c0.1,0-69.8,10-70.4,9.8
		c-0.5-0.3-0.4-0.3-1.2-2.4c-1.4-4.1-6-16-9.6-18.4c-0.2-0.1-0.4-0.3-0.5-0.6c-0.3-0.9,0.4-2.5,0.9-3.4c1.4-2.7,2.9-5.3,4.6-7.8
		C119.2,178,122.4,158.4,127.2,150.4L127.2,150.4z M161.7,120.1c-10.5,1.3-20.8,4-30.7,7.9c-2.5,1-9.6,4.1-11.4,6.1
		c5.1,3,7.8,7.1,8.7,11.8c0.3,1.3,0.3,2.6,0.2,3.9c-0.9,1.4-1.7,2.9-2.2,4.5c-3.8,9.7-5.7,23.8-6.1,24.3c-1.3,2-4.7,7.5-5.3,9.9
		c0,0.2,0-0.1,1.3,1.2c3.7,4,7.8,14,9.5,19.1c0.9-0.1,68.2-10.1,70.1-10.1c0.1,0,0.2,0.1,0.3,0.1c4.5,3,4.2,2.8,4.3,2.7
		c2.1-1.6,4.1-3.3,5.9-5.3c6.7-7.1,11.1-16,12.7-25.7c1-6.8,1-10.3-1.3-17.6c-0.9-2.7-1.9-5.3-3.2-7.9
		C203.2,123.1,185.6,117.2,161.7,120.1L161.7,120.1z"/>
	<path class="st2" d="M195.7,199.6c0,0-35.9-22.5-36.2-22.5c-42.1,8.4-56,17.6-58.1,17.9c-3.4,0.5-7.1,0.5-10.7,1.1
		c-1.7,0.3-11,0.7-10.9,2.7c0.2,5.8,10.7,0.8,11.8,5.6c0.6,2,2.5,3.5,4.6,3.6c4.7,0.2,7.3-2,8.5-2.7c0.5-0.2,9.2,2.3,18.7,4.3
		C181.8,221.6,195.4,199.5,195.7,199.6z"/>
	<path class="st1" d="M196,199.9c-0.1,0.1-1,1.2-1.6,1.7c-2.2,2.2-4.7,4-7.4,5.4c-31.9,16.5-80.6-1.5-82.2-0.5
		c-2.3,1.7-5.1,2.6-8,2.6c-1,0-2-0.2-3-0.6c-1.5-0.7-2.7-1.9-3.3-3.5c-0.1-0.4-0.2-0.8-0.4-1.1c-1.8-2-8.3,0.4-10.7-2.8
		c-0.5-0.7-0.7-1.5-0.7-2.3c0-1.7,2-2.3,3.6-2.8c2.6-0.5,5.3-0.9,8-1.1c4.1-0.6,5.6-0.5,9.2-0.9c1.8-0.2,1.5-0.2,1.7-0.2
		c5.3-2.1,17-9,53.3-16.7c5.6-1.1,5-1,5.4-0.9c9.2,5.6,29.2,18.5,36,22.8c-0.2,0.3-0.4,0.7,0,0l0.1,0
		C196.2,199.4,196.2,199.7,196,199.9C196,199.9,196,199.9,196,199.9L196,199.9z M105,204.3c3.8,0.3,55.5,17.3,83.2,0.9
		c2.6-1.5,4.9-3.3,6.9-5.5c-0.5-0.3-32.2-19.7-35.6-21.7c-12.9,2.7-27.5,6.3-40,10.8c-5.6,2-11,4.2-16.4,6.7
		c-1.3,0.6-1.4,0.6-4.3,0.9c-4.4,0.4-4.8,0.3-7,0.6c-2.8,0.4-7.6,0.6-10.1,1.6c-0.2,0.1-0.5,0.2-0.7,0.3c0,0.5,0.2,1,0.6,1.3
		c1.6,1.2,6.2,0.2,9,1.4c1.9,1,1.9,2.3,2.2,3.1c0.6,1.2,1.8,2,3.2,2.2c2.4,0.2,4.9-0.4,6.9-1.7C104.1,204.5,104.3,204.3,105,204.3
		L105,204.3z M195.8,200L195.8,200L195.8,200L195.8,200z"/>
	<path class="st1" d="M180.8,146.6l-0.1,0.6c-4.4,4.5-10,12.3-13.3,17c-0.8,1.2-7.2,10.7-7.3,12.3v0l0,0v0v0v0v0v0l-0.4,0.5
		c-0.6-0.4-0.5-0.3-0.5-0.5c-0.2-4.2,10.7-22.9,20.9-30.1L180.8,146.6z"/>
	<path class="st3" d="M235.2,167.5c-48.3,4.8-149.3,3.2-197.2-10.1l-5.3,111.1c20.9,18,161.4,26.1,197.9,15.5
		C231,283.8,236.3,167.4,235.2,167.5L235.2,167.5z"/>
	<path class="st1" d="M235.3,167c0.5,0.2,0.4,0.5,0.5,1.8c0.3,14.1-3.2,99.2-4.1,114c-0.1,1.4,0,1.8-0.8,2.2
		c-21.6,6.2-69.5,5.3-91.8,4.1c-23.4-1-82.5-5.9-103.2-16.8c-1.5-0.8-3-1.7-4.3-2.9c-0.2-0.3-0.3-0.6-0.3-0.9
		c5.7-119,5.2-111.2,5.6-111.8c0.2-0.2,0.4-0.4,0.7-0.4c1.8-0.2,22.5,8.1,90.9,11.7C201.6,171.4,233.9,166.7,235.3,167L235.3,167z
		 M34.2,268c14.3,11,72.6,16.2,90.6,17.5c25,1.8,80.5,4.1,104.7-2.5c0-0.1,5.7-102,5.2-115.1c-0.6,0-6.4,0.7-15.1,1.3
		c-47.3,3.1-135.2,1.9-180.5-10.3C34.1,269.3,33.8,267.7,34.2,268z"/>
	<path class="st3" d="M119.7,192.5c-11.1-0.1-30.7-1.1-47.5-4.9l-4.3,58c8.8,4.5,33.1,7.6,48.2,5.1
		C116.1,250.7,120,192.5,119.7,192.5z"/>
	<path class="st1" d="M83.2,188.7c9.1,1.4,18.2,2.4,27.4,2.9c9.3,0.5,9,0.2,9.3,0.5c0.2,0.1,0,0,0.1,0.1c0.5,0.8-2.7,56.2-2.8,58
		c-0.1,0.8,0,1.4-0.9,1.7c-6.8,1.7-27,1.4-41.9-2.5c-2.6-0.6-5.1-1.6-7.5-2.7c-0.2-0.2-0.4-0.4-0.5-0.7c-0.1-0.3,2.8-37.6,4.4-57.3
		c0.1-1.4,0.1-1.3,0.3-1.7C72.1,185.9,71.9,186.8,83.2,188.7L83.2,188.7z M72.7,197.2c-3.2,44.9-3.5,47.5-3.4,47.6
		c9,4,31.6,6.9,45.7,4.8c1.5-20.7,4.1-52.8,4.2-56.7c-1.2,0-7.7-0.1-8.9-0.1c-11.8-0.3-25.5-1.5-36.9-3.9
		C73.2,189,73.3,188.1,72.7,197.2z"/>
	<path class="st3" d="M199.6,195.9c-15.5,2.1-34.2,1.1-51-2.2l-2.6,58.1c9,4.2,36.7,5.4,51.8,2.4
		C197.7,254.3,199.8,195.9,199.6,195.9z"/>
	<g>
		<path class="st1" d="M164.5,195.1c8.7,1,17.5,1.4,26.3,1c8.6-0.4,8.9-1.1,9.3-0.5c0.3,0.6-0.4,31.5-0.4,32.2
			c-0.6,28.5-0.6,26.7-1,27.2c-0.2,0.2-0.4,0.3-0.7,0.4c0.1,0-2.9,0.6-5.4,0.9c-11.9,1.4-29.9,1.1-41.6-1.5c-2-0.4-3.9-1-5.7-1.9
			c-0.3-0.2-0.5-0.5-0.6-0.9c-0.1-0.3,2.6-57.5,2.8-58.5c0.1-0.3,0.2-0.5,0.4-0.7C149,192.1,148.7,193.2,164.5,195.1L164.5,195.1z
			 M147.3,251c10.4,4.1,36.7,4.4,49.2,2.2c0.7-17,2.4-50.4,2.5-56.7c-16,2.2-33.4,1.4-49.4-1.4C148.3,230,147.2,251,147.3,251
			L147.3,251z"/>
		<path class="st1" d="M66.5,256.5c9.8,4.8,31.4,7,43.5,6.2c4.8-0.3,3.5-0.5,4.4-0.3l0.2,0.3v0c-0.1,0.6,0.1,0.6-2.8,1
			c-16.2,2.3-37.7-0.7-46.3-4.8c-0.2,0-0.4-0.3-0.9-0.9l0.1-1v0l0.8-0.7L66.5,256.5z"/>
		<path class="st1" d="M146.5,263.6c10.4,4.3,37.7,5,50.5,2.3l0.4,0.1l0.2,0.3v0c-0.1,0.6,0.1,0.5-2.2,1
			c-16.4,3.6-40.9,2.2-49.6-1.2c-0.4-0.2-0.2,0-1.1-0.9v-1v0l0.7-0.7L146.5,263.6z"/>
		<path class="st1" d="M54.4,208.2l0.3,0.3v0l0,0.4l-0.3,0.3c-0.1,0-2.8,1.4-2.9,1.5c-3,1.5-5.7,3.4-8.2,5.6c1,1.3,9.1,9.5,9.2,9.6
			l0,0h0l0,0l0,0l0,0l0,0h0l0,0h0l0,0l-0.1,0l0.3,0.2l0.1,0.4v0c0,0.1,0,0.1-0.1,0.2c0,0,0,0.1-0.1,0.1l0,0c0,0-0.1,0.1-0.1,0.1
			l-0.1,0c-0.1,0-0.1,0-0.2,0c-0.2,0-0.3-0.1-0.4-0.2c-2.4-1.5-4.6-3.1-6.8-4.9c-1.5-1.3-2.8-2.7-4.1-4.2c-1.4-2,0-2.6,1.1-3.7
			c3.2-2.6,5.8-4.3,11.9-5.6L54.4,208.2z M52.1,225.7c-0.2,0.1-0.1,0.1-0.3,0.2C51.7,226.2,51.7,226.2,52.1,225.7c0.3,0,0.3,0,0.2,0
			L52.1,225.7z"/>
		<path class="st1" d="M216.1,216.7c5.4,2.2,8.4,4.3,11.9,8.8c0.3,0.4,0.4,0.9,0.2,1.4c-1,3-12.7,8.5-13.4,8.5
			c-0.1,0-0.3-0.1-0.4-0.2c0,0-0.1-0.1-0.1-0.2c0-0.1,0-0.1,0-0.2v0l0.2-0.4l0.3-0.2l-0.1,0l0,0h0l0,0h0l0,0h0l0,0l0,0h0l0,0
			c0.5-0.3,5-3.7,7.4-5.4c0.9-0.7,2.3-1.6,3.3-2.5c-0.7-0.9-1.5-1.8-1.8-2.1c-2.4-2.5-5.1-4.7-8-6.7l-0.2-0.3l0-0.4v0l0.3-0.2
			L216.1,216.7z M215.2,234.5c0.2,0.5,0.2,0.4,0.1,0.2C215.2,234.5,215.2,234.5,215.2,234.5c-0.3-0.2-0.2-0.1-0.3-0.1L215.2,234.5z"
			/>
	</g>
	<path class="st2" d="M188.3,76.7c-8.1-8-26.7-15.4-37.4-2.8c0,0-5.5,9.4-1.5,30.2c0.4,2.3,1.3,4.6,2.6,6.6c2.3,3.2,7.9,4,11.7,3.9
		c1.4-0.1,2.9-0.4,4.3-0.4c0.2,0,1.1-0.3,1.3-0.1c1,0.9,1.6,6.7,1.9,7c2.2,2,5.2,2.7,8.1,2c2-0.4,5.6-1.6,6.3-3.3
		c0.3-0.7-0.9-8-0.6-8.3c5.2-5.9,3.7-11.3,4.6-12.3c0.1-0.1,2.3-0.4,2.9-0.7c2.2-1,3.7-4.7,3.2-7.1c-0.3-1.4-1.3-2.5-2.7-2.9
		c-0.9-0.3-3.9,1.6-3.9,1.6L188.3,76.7z"/>
	<path class="st1" d="M192.8,87.7c1.1,0.2,2.1,0.8,2.7,1.7c1.6,2.1,1,5-0.2,7.3c-1.7,2.7-3,2.6-5.1,3.1c-0.1,1.8-0.4,3.6-0.7,5.3
		c-0.7,2.4-1.9,4.7-3.5,6.6c0,0.5,0.6,5.3,0.7,6.9c0.2,1-0.2,2-1,2.6c-0.8,0.7-1.7,1.2-2.7,1.6c-4.5,1.9-8.6,2.1-12.3-0.8
		c-0.6-0.5-0.7-0.6-1-2.4c-1-5.4-1.1-4.2-1.1-4.5c-0.7,0.1-1.3,0.2-2,0.2c-1.5,0.2-3,0.3-4.5,0.3c-2.6,0-5.2-0.6-7.5-1.6
		c-2.1-0.9-3.8-2.7-4.6-4.9c-1.4-3.2-1.8-6-2.3-9.6c-0.8-5.4-0.9-10.9-0.3-16.3c0.3-3.2,1.2-6.4,2.5-9.4c0.2-0.4,0.4-0.8,0.8-1.1
		c1-1.1,2.2-2.1,3.4-3c10.2-7.2,26.3-2,34.6,6.6c0.2,0.2,0.1,0.3,0.2,0.6c0.9,12.9,0.7,12,1,11.8C190.6,88.2,191.7,87.8,192.8,87.7
		L192.8,87.7z M159.8,68.8c-2.9,1-5.5,2.7-7.6,4.9c-0.6,0.7-0.5,0.6-0.7,0.9c-1.6,3.4-2.5,9.3-2.5,13.4c-0.2,5.2,0.7,17.2,3.6,21.7
		c0.5,0.7,1.1,1.4,1.8,1.8c2.3,1.5,5.9,2,8.7,2c1.2-0.1,2.4-0.2,3.6-0.3c0.4,0,0.9-0.1,1.3-0.1c1.1-0.2,1.6-0.3,2.3,0.6
		c0.9,1.5,1.2,4.5,1.7,6.7c1.1,1,2.4,1.6,3.9,1.7c3.2,0.4,7.8-1.6,8.6-2.7c0.1-0.1,0.1-0.1,0.1-0.3c-0.1-2.7-0.5-5-0.6-7.3
		c0-1.1,0.1-0.9,0.9-1.9c1-1.2,1.7-2.5,2.3-3.9c0.7-2,1.2-4.2,1.2-6.3c0.2-1.4,0.7-1.5,1.5-1.7c2.1-0.4,2.2-0.3,3-1
		c1.4-1.3,2.1-3.2,2.1-5.1c-0.1-0.9-0.4-1.7-1-2.3c-0.1-0.1-0.2-0.2-0.3-0.3c-0.3-0.2-0.6-0.3-0.9-0.4c-1.1,0.2-2.1,0.7-3,1.3
		c-0.5,0.3-0.4,0.3-0.7,0.3c-0.3,0-0.6-0.2-0.6-0.5c0-0.2,0,1.3-0.5-13.1c0-0.2,0-0.1-0.1-0.2C180.7,70.3,169,65.8,159.8,68.8
		L159.8,68.8z M189.9,99.8L189.9,99.8L189.9,99.8z M189.9,99.8L189.9,99.8L189.9,99.8z M192.7,89L192.7,89L192.7,89z M192.7,89
		L192.7,89L192.7,89z M192.7,89L192.7,89L192.7,89z"/>
	<path class="st1" d="M149.8,78.3c0.3-0.6-1.4,0.1-1.9-0.2c-1.2-0.6-2.4-1.5-3.1-4.6c-0.6-2.6,1.8-5.2,1.8-5.2
		c-3.2-3-3.4-7.3-0.1-10.9c1.8-2,4.2-1.2,6.3-1.3c0.3,0,0.9-2.1,1.2-2.5c1.2-1.6,3-2.7,5.1-3.1c1.7-0.2,3.3,0.3,4.5,1.4
		c0.7,0.5,2.1,1.4,2.1,1.4c0.8-0.9,1.7-1.7,2.7-2.4c1.9-0.9,4-1.4,6.2-1.3c3.5,0,6.2,4.1,7,4.1c0.2,0,5.7-3.3,10.7-0.7
		c2.7,1.5,5.3,3.3,6.2,6.5c0.6,2.3,0.6,4.8,0.2,7.1c0,0,7.7,0.4,7.6,9.3c0,4.3-4.1,6.6-4.1,6.6c0.1,1.4,2.2,2.6,1,4.9
		c-1.5,3-4.1,1.9-4.6,2.7c-0.2,0.3,1.5,3.5-2.6,4.6c-0.2,0.1,1.3-5.9-3-7.3c-3.6-1.1-7.8-3.4-8.9-6.9c-0.4-1.4,0-4.6-1.6-5.3
		c-0.6-0.3-1.6,1.3-2.1,1.5c-5.1,1.2-6.9,0.5-11.4-2.1c-0.9-0.5-1.6-2-2.6-2.2c-1.8-0.4-4,3.4-5.9,3.8c-1.6,0.3-5.2-1.6-5.8-1.3
		c-0.9,0.5-1,2.2-2,2.7c-0.8,0.5-3.3-0.3-3.2-0.3"/>
	<path class="st1" d="M182.1,74.7c0.7,0.2,1.3,0.8,1.5,1.5c0.6,1.3,0.4,3.5,0.8,4.6c1.1,2.8,4.2,4.6,7,5.7c1.5,0.6,2.2,0.6,3.2,1.5
		c1.6,1.5,1.9,3.8,1.7,6c0.3-0.1,0.6-0.3,0.9-0.6c0.5-0.5,0.7-1.3,0.6-2c-0.1-0.8-0.3-1.2,0.2-1.7c0.9-0.8,2.3-0.2,3.5-1.3
		c0.6-0.5,1-1.3,1.1-2c0.1-1.5-1.4-2.4-1.4-3.8c0-0.1,0-0.2,0.1-0.3c0-0.3,1.6-0.8,3-2.9c0.6-0.9,0.9-1.9,1-3c0.1-4-1.3-7.3-5.1-8.7
		c-1.8-0.6-2.1-0.2-2.5-0.8c-0.2-0.6,0.3-1.2,0.2-4.4c0-1.2-0.3-2.4-0.7-3.5c-0.1-0.3-0.3-0.6-0.4-0.9c-0.3-0.3-0.6-2-5.2-4.5
		c-1.1-0.6-2.2-0.9-3.5-0.9c-2.3,0-4.6,0.6-6.7,1.6c-1.1,0.3-2.2-1.9-4.6-3.3c-1-0.6-2.1-0.9-3.3-0.8c-1.6,0-3.3,0.4-4.8,1
		c-1,0.6-1.8,1.3-2.6,2.2c-0.4,0.4-0.3,0.4-0.5,0.5c-0.3,0.1-0.4,0-1-0.4c-2-1.3-3.3-2.7-5.5-2.5c-2,0.2-3.8,1.3-5,2.9
		c-0.3,0.4-0.7,2.2-1.3,2.6c-0.6,0.4-3.4-0.5-5.2,0.4c-1.4,0.9-2.4,2.3-3,3.9c-0.4,1.1-0.5,2.4-0.2,3.6c0.3,1.3,1,2.4,1.9,3.4
		c0.3,0.3,0.4,0.3,0.4,0.5c0,0.3-0.2,0.3-0.7,1.2c-0.8,1.1-1.2,2.5-1.1,3.9c0.2,1,0.6,2,1.1,2.9c0.5,0.7,1.1,1.3,1.8,1.6
		c0.5,0.1,0.9,0,1.4-0.1l-0.2-0.1l0,0l0-0.1l-0.1,0c-0.1-0.1-0.2-0.2-0.1-0.4c0,0,0,0,0,0c0.2-0.2,0.2-0.1,0.8,0.1
		c0.8,0.3,1.6,0.3,2.4,0.2c0.9-0.5,1.1-2.8,2.3-2.8c1,0,3.1,1.1,4.8,1.3c0.8,0.1,1.5-0.2,2.1-0.7c2.4-2,3.9-4.6,6.2-2.2
		c0.7,0.9,1.6,1.6,2.6,2c3.7,2,5.3,2.3,9.7,1.2C180.8,75.5,181.3,74.7,182.1,74.7L182.1,74.7z M149.5,78.2L149.5,78.2L149.5,78.2
		L149.5,78.2L149.5,78.2z M180,76.3L180,76.3L180,76.3z"/>
	<g id="XMLID_2_">
		<g>
			<path class="st4" d="M150,78c0.1,0.1,0.1,0.2,0,0.3c0,0.1,0,0.1-0.4,0.2c-0.1-0.3,0.1-0.2-1.1-0.1c-0.4,0.1-0.8,0-1.1-0.2
				c-1.4-0.8-2.3-2.1-2.7-3.6c-0.5-1.1-0.5-2.4-0.2-3.6c0.3-1,0.8-1.9,1.4-2.7c-0.8-0.8-1.5-1.7-1.9-2.8c-0.7-1.6-0.7-3.4-0.2-5
				c0.3-0.9,0.8-1.8,1.3-2.5c0.7-1.1,1.7-1.9,3-2.3c1.4-0.2,2.8-0.3,4.2-0.1c0.3-0.6,0.6-1.6,0.9-2.2c1.4-1.9,3.5-3.1,5.8-3.5
				c2.6-0.3,4,1.3,6.3,2.7c0.7-0.7,1.4-1.4,2.1-2c2.6-1.5,5.7-1.9,8.7-1.3c2.5,0.9,4.4,3.2,5.1,3.7c2-1.1,4.3-1.6,6.6-1.7
				c2,0,3.9,0.6,5.5,1.7c1.3,0.8,2.5,1.7,3.6,2.8c2.4,2.7,2.8,6.7,2.3,10.2c2.6,0.4,4.9,2,6.3,4.3c0.9,1.7,1.3,3.6,1.3,5.5
				c-0.1,2.9-1.6,5.5-4,7c0.4,1.2,2.5,2.7,0.2,5.9c-0.6,0.8-1.5,1.3-2.4,1.5c-0.9,0.2-1.3,0.2-1.5,0.2c0.3,0.9,0.2,1.9-0.2,2.8
				c-0.6,1.1-1.6,1.8-2.8,2c-0.3,0.1-0.6,0.1-0.8-0.1c-0.3-0.4-0.2-0.6-0.1-1.8c0.1-1.8-0.2-4-1.7-4.9c-0.9-0.6-6.9-1.9-9.5-6.1
				c-0.4-0.6-0.6-1.2-0.8-1.8c-0.3-1.1-0.1-3.8-0.9-4.6c-0.1-0.1-0.2-0.2-0.3-0.2c-0.2,0-1,1-1.6,1.4c-0.7,0.2-1.3,0.4-2,0.4
				c-3.5,0.6-5,0.1-8.2-1.5c-2.2-1.2-2-1.1-3-2.1c-0.4-0.5-0.9-1.1-1.5-1.1c-1.6,0-3.7,3.6-5.8,3.8c-1.7,0.1-4.7-1.4-5.5-1.4
				c-0.1,0-0.2,0.1-0.2,0.1c-0.7,0.8-0.8,1.9-1.6,2.5C152,78.5,150.9,78.2,150,78z"/>
		</g>
		<g>
		</g>
	</g>
	<path class="st1" d="M160.5,107.4L160.5,107.4L160.5,107.4L160.5,107.4L160.5,107.4L160.5,107.4L160.5,107.4L160.5,107.4
		L160.5,107.4L160.5,107.4L160.5,107.4L160.5,107.4L160.5,107.4L160.5,107.4L160.5,107.4L160.5,107.4L160.5,107.4L160.5,107.4l0-0.1
		L160.5,107.4l0-0.1l0,0l0,0l0,0l0,0l0,0l0,0l0,0l0,0l0,0l0,0l0,0l0,0h0l0,0h0l0,0h0l0,0h0l0,0h0l0,0h0h0h0h0h0h0h0h0
		c0.4-0.1,0.8-0.2,1.2-0.4l0,0l0,0l0,0l0,0l0,0l0,0l0,0l0,0l0,0l0,0c0.1-0.2,0.3-0.3,0.4-0.5v0c0.2-0.4,0.3-0.9,0.4-1.3v0
		c0.2-1-0.3-2-1.1-2.5c-0.5-0.3-1-0.2-0.8-0.3h0l0,0c-0.5,0.1-0.9,0.2-1.3,0.5v0l0,0v0l0,0l0,0l0,0l0,0l0,0l0,0l0,0l0,0l0,0l0,0v0
		l0,0v0l0,0l0,0l0,0l0,0l0,0v0l0,0v0v0v0l0,0v0v0v0v0v0v0v0v0v0v0v0v0v0v0v0v0v0v0l0,0v0l0,0v0l0,0v0l0,0v0l0,0v0l0,0l0,0l-0.1,0.6
		l-0.6-0.1c-0.1-0.2-0.2-0.4-0.1-0.6c0.2-0.5,0.5-1,0.9-1.3c0.8-0.8,2.1-1,3.1-0.5c3.1,1.3,3.1,6,0.7,7.5c-0.9,0.4-1.9,0.5-2.8,0
		c-0.3-0.1-0.4-0.4-0.4-0.7l0.4-0.4L160.5,107.4L160.5,107.4L160.5,107.4L160.5,107.4L160.5,107.4L160.5,107.4L160.5,107.4
		L160.5,107.4L160.5,107.4z"/>
	<path class="st5" d="M141.6,79.9c0.2,0.1,4.2-3.9,4.2-3.9c2.7-0.4,32.7-2.4,39.1,1.7c2.3,1.4,1.8,13.4,1.2,17c-0.4,2.2-5,4.4-5,4.4
		s-15.9,3.2-40.1-1.3C140.3,97.7,141.6,79.9,141.6,79.9z"/>
	<path class="st1" d="M184.7,76.4c1,0.3,1.7,1.1,2,2.1c1.5,3.8,1,13.8,0.5,16.5c-0.1,0.5-0.3,1-0.6,1.4c-1.2,1.5-2.7,2.6-4.5,3.5
		c-0.5,0.3-1,0.5-1.6,0.5c-8.9,1.5-22.9,1.5-38-1.4c-2-0.4-2.4-0.2-2.5-1.9c-0.1-2.3,0.3-7.3,0.4-9.5c0.7-8.6,0.6-7.8,0.9-8
		c1.2-1,2.3-2.1,3.4-3.3c0.9-0.9,0.5-0.8,1.9-0.9C154.3,74.5,177.7,73,184.7,76.4L184.7,76.4z M161.2,76c-1.5,0-14.9,0.2-15.2,0.5
		c-0.6,0.6-3.3,3.2-4,3.7c-0.2,5.1-0.6,12.2-0.4,16.9c11.3,1.9,28,2.9,39.1,0.9c1.5-0.7,2.8-1.6,3.9-2.8c0.2-0.2,0.3-0.4,0.4-0.7
		c0.6-2.4,1-14.1-0.6-16l0,0c-0.5-0.3-0.9-0.5-1.5-0.7C177.7,76.2,166.9,76,161.2,76L161.2,76z M141.7,97.5L141.7,97.5L141.7,97.5
		L141.7,97.5L141.7,97.5L141.7,97.5z M141.7,97.5L141.7,97.5L141.7,97.5L141.7,97.5z M141.5,79.5c0.1,0,0.2,0,0.3,0
		C141.7,79.5,141.6,79.5,141.5,79.5z M141.4,79.5L141.4,79.5L141.4,79.5z"/>
	<g id="XMLID_1_">
		<g>
			<path class="st6" d="M180.6,81.8c1.8-0.2,1.4,12.1,0.6,16.9c-0.5,2.8-32.8,3.2-40.3-0.8c-2.3-1.3,0.6-17.9,0.6-17.9
				C146.4,82.2,175.5,82.5,180.6,81.8z"/>
		</g>
		<g>
		</g>
	</g>
	<path class="st1" d="M141.2,79.9c0-0.2,0.3-0.4,0.5-0.3c0,0,0.1,0,0.1,0c4.5,1.8,25.7,1.6,30.6,1.5c2.8,0,5.6-0.1,8.4-0.4
		c1.3,0.1,1.6,1.5,1.8,2.6c0.5,5,0.5,10-0.2,15c0,0.7-0.3,1.3-0.9,1.6c-3.7,2.5-29,2.7-38.7-0.5c-0.9-0.3-1.8-0.7-2.6-1.3
		C138.1,95.8,140.6,83.2,141.2,79.9C141.3,79.9,141.4,79.9,141.2,79.9z M167.1,99.7c2.5-0.1,10.9-0.4,13.1-1.5
		c0.3-2.4,0.5-4.9,0.6-7.3c0.1-2.5,0-5-0.3-7.5c0-0.2-0.1-0.4-0.1-0.6c-5.6,0.6-18.2,0.1-24.5-0.4c-3-0.2-11.1-0.9-13.9-1.9
		c-0.5,3.5-1.3,10.8-1,14.3c0,0.8,0.2,1.5,0.5,2.2v0l0,0l0,0h0l0,0C146.3,99.6,161.2,99.8,167.1,99.7L167.1,99.7z M141.4,97.1
		L141.4,97.1L141.4,97.1L141.4,97.1L141.4,97.1L141.4,97.1L141.4,97.1L141.4,97.1L141.4,97.1L141.4,97.1L141.4,97.1L141.4,97.1
		L141.4,97.1L141.4,97.1L141.4,97.1L141.4,97.1L141.4,97.1z M141.4,97.1L141.4,97.1L141.4,97.1z M141.4,97.1L141.4,97.1L141.4,97.1
		L141.4,97.1z"/>
	<path class="st5" d="M182.1,85.5c1.2,0.6,22.3-12.1,23.5-12.9c1.4-1.1,1.5,5.6,0.2,7.2c-2,2.5-23,14.1-23.6,12.6
		C182,92.3,182.1,85.5,182.1,85.5z"/>
	<path class="st1" d="M182.3,85.1L182.3,85.1L182.3,85.1L182.3,85.1L182.3,85.1L182.3,85.1L182.3,85.1L182.3,85.1L182.3,85.1
		L182.3,85.1L182.3,85.1L182.3,85.1L182.3,85.1c0.3-0.1,0.6-0.2,0.8-0.3c3-1.3,20.1-12,21.1-12.6c0.9-0.6,0.7-0.4,0.8-0.6
		c0.7-0.5,1.6-0.2,2.1,0.5c0.1,0.1,0.1,0.2,0.2,0.4c0.8,1.5,0.6,6.1-0.5,7.8c-1.9,2.9-20.3,12.7-24.1,13c-0.3,0-0.6,0-0.8-0.2
		c-0.5-0.4-0.4-0.7-0.3-3.6c0-0.2,0.1-3.7,0.2-4c0-0.2,0.2-0.4,0.4-0.4C182.2,85.1,182.2,85.1,182.3,85.1L182.3,85.1L182.3,85.1z
		 M182.8,92.3L182.8,92.3L182.8,92.3L182.8,92.3L182.8,92.3L182.8,92.3L182.8,92.3z M189.1,83.1c-2.1,1.1-4.3,2.1-6.6,2.9
		c0,1.1,0.1,4.2,0.2,5.9c0.6-0.2,1.2-0.4,1.8-0.7c2.7-1.2,19.4-10.2,20.5-12.2c0.4-1,0.6-2,0.6-3.1c0-0.6,0-1.3-0.1-1.9
		C200.8,76.8,193.7,80.8,189.1,83.1z"/>
	<path class="st1" d="M176,86.3L176,86.3l-0.1,0.4l-0.4,0.2c-4.6,0.6-9.3,1-14,1c-3.1,0-12.4-0.1-15.2-1.1l-0.7-0.7l0-1v0l0.7-0.7
		c1.5-0.1,0.5-0.1,2,0.2c3.7,0.8,11.5,1.2,15.3,1.3c11.5,0.5,11.2-0.3,12.3,0.1L176,86.3z"/>
	<path class="st1" d="M139.2,133.9c-8.7,11.6-14.8,25-17.9,39.2c-1.1,4.7-0.5,3.8-1.3,4.4l-0.4-0.5c1.1-16.3,7.8-31.7,18.9-43.6
		l0.6-0.1L139.2,133.9z"/>
</g>
</svg>
